<svg viewBox="0 0 20 20" xmlns="http://www.w3.org/2000/svg">
 <path d="m9 0c-1.645 0-3 1.355-3 3v1h-4a1 1 0 0 0-1 1 1 1 0 0 0 1 1h16a1 1 0 0 0 1-1 1 1 0 0 0-1-1h-4v-1c0-1.645-1.355-3-3-3zm0 2h2c0.56413 0 1 0.43587 1 1v1h-4v-1c0-0.56413 0.43587-1 1-1zm-5 5a1 1 0 0 0-1 1v8c0 2.1973 1.8027 4 4 4h6c2.1973 0 4-1.8027 4-4v-8a1 1 0 0 0-1-1 1 1 0 0 0-1 1v8c0 1.1164-0.88359 2-2 2h-6c-1.1164 0-2-0.88359-2-2v-8a1 1 0 0 0-1-1zm4 2a1 1 0 0 0-1 1v5a1 1 0 0 0 1 1 1 1 0 0 0 1-1v-5a1 1 0 0 0-1-1zm4 0a1 1 0 0 0-1 1v5a1 1 0 0 0 1 1 1 1 0 0 0 1-1v-5a1 1 0 0 0-1-1z" />
</svg>
